# xmcd
#
# Track frame offsets:
#	182
#	18520
#	31662
#	43180
#	64347
#	83545
#	103297
#	115825
#	129657
#	141892
#	166725
#	180140
#	193505
#	208910
#	219807
#	238605
#	258845
#	276420
#	292272
#	303665
#	319735
#	333307
#	345315
#
# Disc length: 4738 seconds
#
# Revision: 0
# Processed by: cddbd v1.5.2PL0 Copyright (c) Steve Scherf et al.
# Submitted via: audiograbber 1.83.01
#
DISCID=51128017
DTITLE=Astor Piazzolla, Nestor Marconi and many more - Tango Argentina
DYEAR=1993
DGENRE=Tango
TTITLE0=Astor Piazzola and Roberto Goyeneche - Vuelvo Al Sur 
TTITLE1=Roberto Goyeneche and Nestor Marconi - Ventanita Florida
TTITLE2=Mano A Mano - Voy Cantando Tangos Por El Mundo
TTITLE3=Roberto Goveneche and Nestor Marconi - Sur
TTITLE4=La Orquesta Del Tango De Buenos Aires - Volver
TTITLE5=Astor Piazzolla - Tango-Tango
TTITLE6=Roberto Goyeneche - Yuyo Verde
TTITLE7=Mano A Mano - Los Argentinos
TTITLE8=Roberto Goyeneche - Como Dos Extranos
TTITLE9=Nestor Marconi - Loca Bohemia
TTITLE10=Roberto Goyeneche - Buenos Aires Conoce
TTITLE11=Astor Piazzolla - Los Suenos
TTITLE12=La Orquesta Del Tango De Buenos Aires - Maipo
TTITLE13=Mano A Mano - La Vida Es Linda, Pibe
TTITLE14=Alfredo Zitarrosa - Milonga Del Tartamundo
TTITLE15=Nestor Marconi - Corrientes Arriba
TTITLE16=Salgan-De Lio - Tango Del Eco
TTITLE17=Astor Piazzolla - Ausencias
TTITLE18=Mano A Mano - Adios Arrabal
TTITLE19=Astor Piazzolla - Oblivion
TTITLE20=Salgan-Del Dio - Tal Vez No Tenga Fin
TTITLE21=Roberto Goyeneche and Nestor Marconi - Cmo Abrazado A Un Rencor
TTITLE22=Mano A Mano - The Typical One
EXTD=
EXTT0=
EXTT1=
EXTT2=
EXTT3=
EXTT4=
EXTT5=
EXTT6=
EXTT7=
EXTT8=
EXTT9=
EXTT10=
EXTT11=
EXTT12=
EXTT13=
EXTT14=
EXTT15=
EXTT16=
EXTT17=
EXTT18=
EXTT19=
EXTT20=
EXTT21=
EXTT22=
PLAYORDER=
